<svg fill="#1c1c1c" xmlns="http://www.w3.org/2000/svg" enable-background="new 0 0 32 32" viewBox="0 0 32 32"><path d="M24.612 13L22.8 4.125c-.009-.046-.021-.092-.038-.136-.303-.848-.963-1.508-1.812-1.812s-1.782-.213-2.557.251c-1.478.883-3.312.883-4.788-.001-.775-.464-1.707-.555-2.556-.25S9.541 3.142 9.222 4.04L6.552 13H24.612zM29.515 17.143L25.944 15H5.333L2.4 17.2c-.345.258-.485.708-.349 1.116C2.187 18.725 2.569 19 3 19h26c.449 0 .844-.3.964-.733S29.9 17.374 29.515 17.143zM26 21H6c-.552 0-1 .448-1 1v3c0 1.657 1.343 3 3 3h4c.944 0 1.833-.444 2.399-1.2l1.2-1.6C15.73 25.026 15.906 25 16 25s.27.026.4.2l1.199 1.599C18.166 27.555 19.055 28 20 28h4c1.657 0 3-1.343 3-3v-3C27 21.448 26.552 21 26 21z"/></svg>